;Layer: Drill PTH
;EasyEDA v6.2.46, 2019-10-16T13:26:15+01:00
;ae079d8acce342fb8db977bfef0d72cc,7d8c45e2f626414c9c496ba5291ef857,10
;Gerber Generator version 0.2
M48
METRIC,LZ,000.000
;Holesize 1 = 0.900 METRIC
T01C0.900
;Holesize 2 = 1.000 METRIC
T02C1.000
;Holesize 3 = 1.199 METRIC
T03C1.199
;Holesize 4 = 1.200 METRIC
T04C1.200
%
G05
G90
T01
X+039116Y+028998
X+039116Y+036618
X+036576Y+028998
X+036576Y+036618
T02
X+032167Y+038922
X+030371Y+040718
X+024982Y+035329
X+026778Y+033533
T03
X+038227Y+010876
X+038227Y+013378
X+038227Y+015877
X+028829Y+023957
X+028829Y+026459
X+028829Y+028958
X+017418Y+039158
X+019919Y+039158
X+008510Y+016337
X+008510Y+018839
X+008510Y+021338
X+028830Y+009928
X+028830Y+007427
X+028830Y+017548
X+028830Y+015047
X+008510Y+007427
X+008510Y+009928
X+008510Y+027787
X+008510Y+030289
X+008510Y+032788
X+008510Y+035288
T04
X+019939Y+007408
X+017399Y+007408
X+019939Y+009948
X+017399Y+009948
X+019939Y+012488
X+017399Y+012488
X+019939Y+015028
X+017399Y+015028
X+019939Y+017568
X+017399Y+017568
X+019939Y+020108
X+017399Y+020108
X+019939Y+022648
X+017399Y+022648
X+019939Y+025188
X+017399Y+025188
X+019939Y+027728
X+017399Y+027728
X+019939Y+030268
X+017399Y+030268
X+039116Y+023918
X+039116Y+026458
X+036576Y+023918
X+036576Y+026458
M30
