G04 Layer: TopSilkLayer*
G04 EasyEDA v6.2.46, 2019-10-16T13:26:15+01:00*
G04 ae079d8acce342fb8db977bfef0d72cc,7d8c45e2f626414c9c496ba5291ef857,10*
G04 Gerber Generator version 0.2*
G04 Scale: 100 percent, Rotated: No, Reflected: No *
G04 Dimensions in millimeters *
G04 leading zeros omitted , absolute positions ,3 integer and 3 decimal *
%FSLAX33Y33*%
%MOMM*%
G90*
G71D02*

%ADD10C,0.254000*%
%ADD19C,0.203200*%
%ADD20C,0.202999*%
%ADD21C,0.399999*%
%ADD22C,0.152400*%

%LPD*%
G54D10*
G01X31985Y37303D02*
G01X28752Y40536D01*
G01X25164Y36948D02*
G01X28752Y40536D01*
G01X30732Y36050D02*
G01X31985Y37303D01*
G01X28397Y33715D02*
G01X29654Y34972D01*
G01X28397Y33715D02*
G01X25164Y36948D01*
G01X38354Y30268D02*
G01X38354Y35348D01*
G01X38354Y35348D02*
G01X39116Y35348D01*
G01X39116Y35348D02*
G01X39878Y35348D01*
G01X39878Y35348D02*
G01X39878Y30268D01*
G01X39878Y30268D02*
G01X39116Y30268D01*
G01X39116Y30268D02*
G01X38354Y30268D01*
G01X39116Y35348D02*
G01X39116Y35602D01*
G01X39116Y30268D02*
G01X39116Y30014D01*
G01X35814Y30268D02*
G01X35814Y35348D01*
G01X35814Y35348D02*
G01X36576Y35348D01*
G01X36576Y35348D02*
G01X37338Y35348D01*
G01X37338Y35348D02*
G01X37338Y30268D01*
G01X37338Y30268D02*
G01X36576Y30268D01*
G01X36576Y30268D02*
G01X35814Y30268D01*
G01X36576Y35348D02*
G01X36576Y35602D01*
G01X36576Y30268D02*
G01X36576Y30014D01*
G01X34858Y8460D02*
G01X40659Y8460D01*
G01X34848Y8463D02*
G01X34848Y18463D01*
G01X34848Y18470D02*
G01X40640Y18470D01*
G01X40665Y8463D02*
G01X40665Y18463D01*
G01X25460Y21541D02*
G01X31261Y21541D01*
G01X25450Y21544D02*
G01X25450Y31544D01*
G01X25450Y31551D02*
G01X31242Y31551D01*
G01X31267Y21544D02*
G01X31267Y31544D01*
G01X14269Y2338D02*
G01X14269Y35337D01*
G01X14269Y35337D02*
G01X23068Y35337D01*
G01X23068Y35337D02*
G01X23068Y2338D01*
G01X23068Y2338D02*
G01X14269Y2338D01*
G01X22987Y16298D02*
G01X21717Y16298D01*
G01X21717Y21378D01*
G01X22987Y21378D01*
G01X22479Y2836D02*
G01X14859Y2836D01*
G01X14859Y34840D01*
G01X22479Y34840D01*
G01X22479Y21378D01*
G01X22479Y16298D02*
G01X22479Y2836D01*
G01X22490Y3768D02*
G01X20955Y4614D01*
G01X22490Y5546D01*
G01X14979Y42510D02*
G01X14979Y36710D01*
G01X14979Y42510D02*
G01X22479Y42510D01*
G01X22498Y42510D02*
G01X22498Y36719D01*
G01X14997Y36719D02*
G01X22498Y36719D01*
G01X15589Y41875D02*
G01X21863Y41875D01*
G01X21863Y37329D01*
G01X22447Y42485D02*
G01X22447Y42409D01*
G01X21837Y41799D01*
G01X15005Y42485D02*
G01X15005Y42409D01*
G01X15614Y41799D01*
G01X15589Y40199D02*
G01X21863Y40199D01*
G01X15589Y39666D02*
G01X21863Y39666D01*
G01X14979Y38192D02*
G01X15563Y38192D01*
G01X21888Y38015D02*
G01X22472Y38015D01*
G01X16224Y36745D02*
G01X16224Y37329D01*
G01X21863Y37329D02*
G01X15589Y37329D01*
G01X15589Y37329D02*
G01X15589Y41850D01*
G01X15614Y41850D01*
G01X16998Y36732D02*
G01X16998Y37316D01*
G01X20466Y36745D02*
G01X20466Y37329D01*
G01X21240Y36732D02*
G01X21240Y37316D01*
G54D19*
G01X37846Y27728D02*
G01X40386Y27728D01*
G01X40386Y22648D01*
G01X37846Y22648D01*
G01X37846Y24553D01*
G54D20*
G01X37846Y27728D02*
G01X37846Y24553D01*
G54D19*
G01X35306Y27728D02*
G01X37846Y27728D01*
G01X37846Y22648D01*
G01X35306Y22648D01*
G01X35306Y24553D01*
G54D20*
G01X35306Y27728D02*
G01X35306Y24553D01*
G54D10*
G01X5142Y13921D02*
G01X10942Y13921D01*
G01X5132Y13924D02*
G01X5132Y23924D01*
G01X5132Y23931D02*
G01X10923Y23931D01*
G01X10948Y13924D02*
G01X10948Y23924D01*
G01X32183Y12367D02*
G01X26382Y12367D01*
G01X32183Y12367D02*
G01X32183Y4867D01*
G01X32183Y4848D02*
G01X26391Y4848D01*
G01X26391Y12349D02*
G01X26391Y4848D01*
G01X31548Y11757D02*
G01X31548Y5483D01*
G01X27001Y5483D01*
G01X32157Y4899D02*
G01X32081Y4899D01*
G01X31471Y5509D01*
G01X32157Y12341D02*
G01X32081Y12341D01*
G01X31471Y11732D01*
G01X29871Y11757D02*
G01X29871Y5483D01*
G01X29338Y11757D02*
G01X29338Y5483D01*
G01X27865Y12367D02*
G01X27865Y11783D01*
G01X27687Y5458D02*
G01X27687Y4874D01*
G01X26417Y11122D02*
G01X27001Y11122D01*
G01X27001Y5483D02*
G01X27001Y11757D01*
G01X27001Y11757D02*
G01X31522Y11757D01*
G01X31522Y11732D01*
G01X26404Y10348D02*
G01X26988Y10348D01*
G01X26417Y6880D02*
G01X27001Y6880D01*
G01X26404Y6106D02*
G01X26988Y6106D01*
G01X32183Y19987D02*
G01X26382Y19987D01*
G01X32183Y19987D02*
G01X32183Y12487D01*
G01X32183Y12468D02*
G01X26391Y12468D01*
G01X26391Y19969D02*
G01X26391Y12468D01*
G01X31548Y19377D02*
G01X31548Y13103D01*
G01X27001Y13103D01*
G01X32157Y12519D02*
G01X32081Y12519D01*
G01X31471Y13129D01*
G01X32157Y19961D02*
G01X32081Y19961D01*
G01X31471Y19352D01*
G01X29871Y19377D02*
G01X29871Y13103D01*
G01X29338Y19377D02*
G01X29338Y13103D01*
G01X27865Y19987D02*
G01X27865Y19403D01*
G01X27687Y13078D02*
G01X27687Y12494D01*
G01X26417Y18742D02*
G01X27001Y18742D01*
G01X27001Y13103D02*
G01X27001Y19377D01*
G01X27001Y19377D02*
G01X31522Y19377D01*
G01X31522Y19352D01*
G01X26404Y17968D02*
G01X26988Y17968D01*
G01X26417Y14500D02*
G01X27001Y14500D01*
G01X26404Y13726D02*
G01X26988Y13726D01*
G01X5157Y4988D02*
G01X10957Y4988D01*
G01X5157Y4988D02*
G01X5157Y12488D01*
G01X5157Y12507D02*
G01X10948Y12507D01*
G01X10948Y5006D02*
G01X10948Y12507D01*
G01X5792Y5598D02*
G01X5792Y11872D01*
G01X10339Y11872D01*
G01X5182Y12456D02*
G01X5259Y12456D01*
G01X5868Y11846D01*
G01X5182Y5014D02*
G01X5259Y5014D01*
G01X5868Y5623D01*
G01X7468Y5598D02*
G01X7468Y11872D01*
G01X8002Y5598D02*
G01X8002Y11872D01*
G01X9475Y4988D02*
G01X9475Y5572D01*
G01X9653Y11897D02*
G01X9653Y12481D01*
G01X10923Y6233D02*
G01X10339Y6233D01*
G01X10339Y11872D02*
G01X10339Y5598D01*
G01X10339Y5598D02*
G01X5817Y5598D01*
G01X5817Y5623D01*
G01X10935Y7007D02*
G01X10351Y7007D01*
G01X10923Y10475D02*
G01X10339Y10475D01*
G01X10935Y11249D02*
G01X10351Y11249D01*
G01X5142Y25372D02*
G01X10942Y25372D01*
G01X5132Y25374D02*
G01X5132Y37871D01*
G01X5132Y37871D02*
G01X10923Y37871D01*
G01X10948Y25374D02*
G01X10948Y37871D01*
G54D22*
G01X24130Y38577D02*
G01X24902Y37805D01*
G01X24130Y38577D02*
G01X24460Y38908D01*
G01X24607Y38980D01*
G01X24681Y38981D01*
G01X24791Y38944D01*
G01X24900Y38834D01*
G01X24938Y38725D01*
G01X24938Y38649D01*
G01X24864Y38504D01*
G01X24534Y38173D01*
G01X25620Y39702D02*
G01X25509Y39737D01*
G01X25365Y39737D01*
G01X25254Y39702D01*
G01X25107Y39554D01*
G01X25071Y39443D01*
G01X25069Y39297D01*
G01X25107Y39188D01*
G01X25180Y39039D01*
G01X25363Y38856D01*
G01X25511Y38784D01*
G01X25620Y38746D01*
G01X25768Y38746D01*
G01X25879Y38782D01*
G01X26026Y38929D01*
G01X26062Y39041D01*
G01X26060Y39186D01*
G01X26024Y39297D01*
G01X25863Y40310D02*
G01X25791Y40163D01*
G01X25825Y40054D01*
G01X25899Y39980D01*
G01X26010Y39944D01*
G01X26121Y39980D01*
G01X26305Y40091D01*
G01X26452Y40163D01*
G01X26599Y40163D01*
G01X26707Y40127D01*
G01X26818Y40016D01*
G01X26856Y39906D01*
G01X26854Y39833D01*
G01X26782Y39685D01*
G01X26635Y39538D01*
G01X26488Y39466D01*
G01X26414Y39464D01*
G01X26305Y39502D01*
G01X26193Y39614D01*
G01X26157Y39721D01*
G01X26157Y39869D01*
G01X26231Y40018D01*
G01X26340Y40199D01*
G01X26376Y40310D01*
G01X26340Y40422D01*
G01X26267Y40495D01*
G01X26157Y40530D01*
G01X26010Y40458D01*
G01X25863Y40310D01*
G01X26583Y40736D02*
G01X26619Y40847D01*
G01X26621Y41068D01*
G01X27393Y40296D01*
G01X27377Y41824D02*
G01X27781Y40684D01*
G01X26863Y41311D02*
G01X27377Y41824D01*
G01X36730Y32808D02*
G01X37820Y32808D01*
G01X36730Y32808D02*
G01X36730Y33275D01*
G01X36781Y33430D01*
G01X36832Y33483D01*
G01X36936Y33534D01*
G01X37040Y33534D01*
G01X37144Y33483D01*
G01X37198Y33430D01*
G01X37249Y33275D01*
G01X37249Y32808D01*
G01X37249Y33171D02*
G01X37820Y33534D01*
G01X36936Y33877D02*
G01X36885Y33981D01*
G01X36730Y34139D01*
G01X37820Y34139D01*
G01X34190Y32808D02*
G01X35280Y32808D01*
G01X34190Y32808D02*
G01X34190Y33275D01*
G01X34241Y33430D01*
G01X34292Y33483D01*
G01X34396Y33534D01*
G01X34500Y33534D01*
G01X34604Y33483D01*
G01X34658Y33430D01*
G01X34709Y33275D01*
G01X34709Y32808D01*
G01X34709Y33171D02*
G01X35280Y33534D01*
G01X34450Y33930D02*
G01X34396Y33930D01*
G01X34292Y33981D01*
G01X34241Y34034D01*
G01X34190Y34138D01*
G01X34190Y34344D01*
G01X34241Y34448D01*
G01X34292Y34502D01*
G01X34396Y34552D01*
G01X34500Y34552D01*
G01X34604Y34502D01*
G01X34762Y34398D01*
G01X35280Y33877D01*
G01X35280Y34606D01*
G01X42418Y10857D02*
G01X43507Y10857D01*
G01X42418Y10857D02*
G01X42418Y11324D01*
G01X42468Y11479D01*
G01X42519Y11532D01*
G01X42623Y11583D01*
G01X42781Y11583D01*
G01X42885Y11532D01*
G01X42936Y11479D01*
G01X42989Y11324D01*
G01X42989Y10857D01*
G01X42418Y11926D02*
G01X43507Y11926D01*
G01X42418Y11926D02*
G01X42418Y12394D01*
G01X42468Y12551D01*
G01X42519Y12602D01*
G01X42623Y12655D01*
G01X42727Y12655D01*
G01X42832Y12602D01*
G01X42885Y12551D01*
G01X42936Y12394D01*
G01X42936Y11926D01*
G01X42936Y12292D02*
G01X43507Y12655D01*
G01X42418Y13308D02*
G01X42468Y13206D01*
G01X42572Y13102D01*
G01X42677Y13049D01*
G01X42832Y12998D01*
G01X43091Y12998D01*
G01X43248Y13049D01*
G01X43352Y13102D01*
G01X43456Y13206D01*
G01X43507Y13308D01*
G01X43507Y13516D01*
G01X43456Y13620D01*
G01X43352Y13724D01*
G01X43248Y13778D01*
G01X43091Y13829D01*
G01X42832Y13829D01*
G01X42677Y13778D01*
G01X42572Y13724D01*
G01X42468Y13620D01*
G01X42418Y13516D01*
G01X42418Y13308D01*
G01X42418Y14172D02*
G01X43507Y14172D01*
G01X42418Y14172D02*
G01X42418Y14639D01*
G01X42468Y14794D01*
G01X42519Y14847D01*
G01X42623Y14898D01*
G01X42727Y14898D01*
G01X42832Y14847D01*
G01X42885Y14794D01*
G01X42936Y14639D01*
G01X42936Y14172D02*
G01X42936Y14639D01*
G01X42989Y14794D01*
G01X43040Y14847D01*
G01X43144Y14898D01*
G01X43299Y14898D01*
G01X43403Y14847D01*
G01X43456Y14794D01*
G01X43507Y14639D01*
G01X43507Y14172D01*
G01X42418Y15241D02*
G01X43507Y15241D01*
G01X42418Y15241D02*
G01X42418Y15916D01*
G01X42936Y15241D02*
G01X42936Y15657D01*
G01X43507Y15241D02*
G01X43507Y15916D01*
G01X23876Y27209D02*
G01X24968Y26483D01*
G01X23876Y26483D02*
G01X23876Y27209D01*
G01X24968Y26483D02*
G01X24968Y27209D01*
G01X24500Y27552D02*
G01X24500Y28490D01*
G01X12573Y15746D02*
G01X13662Y15746D01*
G01X12573Y16089D02*
G01X13662Y16089D01*
G01X12573Y16089D02*
G01X12573Y16452D01*
G01X12623Y16607D01*
G01X12727Y16712D01*
G01X12832Y16765D01*
G01X12987Y16816D01*
G01X13246Y16816D01*
G01X13403Y16765D01*
G01X13507Y16712D01*
G01X13611Y16607D01*
G01X13662Y16452D01*
G01X13662Y16089D01*
G01X12832Y17938D02*
G01X12727Y17885D01*
G01X12623Y17783D01*
G01X12573Y17679D01*
G01X12573Y17471D01*
G01X12623Y17367D01*
G01X12727Y17263D01*
G01X12832Y17212D01*
G01X12987Y17159D01*
G01X13246Y17159D01*
G01X13403Y17212D01*
G01X13507Y17263D01*
G01X13611Y17367D01*
G01X13662Y17471D01*
G01X13662Y17679D01*
G01X13611Y17783D01*
G01X13507Y17885D01*
G01X13403Y17938D01*
G01X14025Y18281D02*
G01X14025Y19216D01*
G01X12832Y19612D02*
G01X12778Y19612D01*
G01X12674Y19663D01*
G01X12623Y19714D01*
G01X12573Y19818D01*
G01X12573Y20026D01*
G01X12623Y20130D01*
G01X12674Y20184D01*
G01X12778Y20235D01*
G01X12882Y20235D01*
G01X12987Y20184D01*
G01X13144Y20080D01*
G01X13662Y19559D01*
G01X13662Y20285D01*
G01X12573Y20628D02*
G01X13662Y21357D01*
G01X12573Y21357D02*
G01X13662Y20628D01*
G01X12778Y21700D02*
G01X12727Y21804D01*
G01X12573Y21959D01*
G01X13662Y21959D01*
G01X12573Y22614D02*
G01X12623Y22457D01*
G01X12778Y22355D01*
G01X13040Y22302D01*
G01X13195Y22302D01*
G01X13454Y22355D01*
G01X13611Y22457D01*
G01X13662Y22614D01*
G01X13662Y22719D01*
G01X13611Y22874D01*
G01X13454Y22978D01*
G01X13195Y23029D01*
G01X13040Y23029D01*
G01X12778Y22978D01*
G01X12623Y22874D01*
G01X12573Y22719D01*
G01X12573Y22614D01*
G01X14025Y23371D02*
G01X14025Y24309D01*
G01X12832Y25429D02*
G01X12727Y25378D01*
G01X12623Y25274D01*
G01X12573Y25170D01*
G01X12573Y24961D01*
G01X12623Y24857D01*
G01X12727Y24756D01*
G01X12832Y24702D01*
G01X12987Y24652D01*
G01X13246Y24652D01*
G01X13403Y24702D01*
G01X13507Y24756D01*
G01X13611Y24857D01*
G01X13662Y24961D01*
G01X13662Y25170D01*
G01X13611Y25274D01*
G01X13507Y25378D01*
G01X13403Y25429D01*
G01X12573Y26084D02*
G01X12623Y25980D01*
G01X12727Y25876D01*
G01X12832Y25825D01*
G01X12987Y25772D01*
G01X13246Y25772D01*
G01X13403Y25825D01*
G01X13507Y25876D01*
G01X13611Y25980D01*
G01X13662Y26084D01*
G01X13662Y26292D01*
G01X13611Y26397D01*
G01X13507Y26501D01*
G01X13403Y26551D01*
G01X13246Y26605D01*
G01X12987Y26605D01*
G01X12832Y26551D01*
G01X12727Y26501D01*
G01X12623Y26397D01*
G01X12573Y26292D01*
G01X12573Y26084D01*
G01X12573Y26948D02*
G01X13662Y26948D01*
G01X12573Y26948D02*
G01X13662Y27674D01*
G01X12573Y27674D02*
G01X13662Y27674D01*
G01X12573Y28017D02*
G01X13662Y28017D01*
G01X12573Y28017D02*
G01X13662Y28744D01*
G01X12573Y28744D02*
G01X13662Y28744D01*
G01X16382Y43984D02*
G01X16382Y42894D01*
G01X16382Y43984D02*
G01X16852Y43984D01*
G01X17007Y43933D01*
G01X17058Y43882D01*
G01X17111Y43778D01*
G01X17111Y43620D01*
G01X17058Y43516D01*
G01X17007Y43465D01*
G01X16852Y43412D01*
G01X16382Y43412D01*
G01X17767Y43984D02*
G01X17663Y43933D01*
G01X17558Y43829D01*
G01X17505Y43724D01*
G01X17454Y43569D01*
G01X17454Y43310D01*
G01X17505Y43153D01*
G01X17558Y43049D01*
G01X17663Y42945D01*
G01X17767Y42894D01*
G01X17973Y42894D01*
G01X18077Y42945D01*
G01X18181Y43049D01*
G01X18234Y43153D01*
G01X18285Y43310D01*
G01X18285Y43569D01*
G01X18234Y43724D01*
G01X18181Y43829D01*
G01X18077Y43933D01*
G01X17973Y43984D01*
G01X17767Y43984D01*
G01X18628Y43984D02*
G01X18887Y42894D01*
G01X19149Y43984D02*
G01X18887Y42894D01*
G01X19149Y43984D02*
G01X19408Y42894D01*
G01X19667Y43984D02*
G01X19408Y42894D01*
G01X20010Y43984D02*
G01X20010Y42894D01*
G01X20010Y43984D02*
G01X20685Y43984D01*
G01X20010Y43465D02*
G01X20426Y43465D01*
G01X20010Y42894D02*
G01X20685Y42894D01*
G01X21028Y43984D02*
G01X21028Y42894D01*
G01X21028Y43984D02*
G01X21495Y43984D01*
G01X21653Y43933D01*
G01X21704Y43882D01*
G01X21755Y43778D01*
G01X21755Y43674D01*
G01X21704Y43569D01*
G01X21653Y43516D01*
G01X21495Y43465D01*
G01X21028Y43465D01*
G01X21391Y43465D02*
G01X21755Y42894D01*
G01X38940Y19000D02*
G01X38889Y19104D01*
G01X38734Y19259D01*
G01X39824Y19259D01*
G01X38994Y19655D02*
G01X38940Y19655D01*
G01X38836Y19706D01*
G01X38785Y19760D01*
G01X38734Y19864D01*
G01X38734Y20069D01*
G01X38785Y20174D01*
G01X38836Y20227D01*
G01X38940Y20278D01*
G01X39044Y20278D01*
G01X39148Y20227D01*
G01X39306Y20123D01*
G01X39824Y19602D01*
G01X39824Y20331D01*
G01X38734Y20674D02*
G01X39824Y21088D01*
G01X38734Y21505D02*
G01X39824Y21088D01*
G01X36454Y18914D02*
G01X36400Y18914D01*
G01X36296Y18967D01*
G01X36245Y19018D01*
G01X36195Y19122D01*
G01X36195Y19330D01*
G01X36245Y19434D01*
G01X36296Y19485D01*
G01X36400Y19539D01*
G01X36504Y19539D01*
G01X36609Y19485D01*
G01X36766Y19384D01*
G01X37284Y18863D01*
G01X37284Y19589D01*
G01X36195Y20453D02*
G01X36921Y19932D01*
G01X36921Y20712D01*
G01X36195Y20453D02*
G01X37284Y20453D01*
G01X36195Y21055D02*
G01X37284Y21471D01*
G01X36195Y21886D02*
G01X37284Y21471D01*
G01X3430Y14864D02*
G01X4519Y14864D01*
G01X3430Y14864D02*
G01X4519Y15278D01*
G01X3430Y15694D02*
G01X4519Y15278D01*
G01X3430Y15694D02*
G01X4519Y15694D01*
G01X4883Y16037D02*
G01X4883Y16972D01*
G01X3585Y18041D02*
G01X3481Y17937D01*
G01X3430Y17782D01*
G01X3430Y17574D01*
G01X3481Y17419D01*
G01X3585Y17315D01*
G01X3689Y17315D01*
G01X3793Y17366D01*
G01X3844Y17419D01*
G01X3897Y17523D01*
G01X4001Y17836D01*
G01X4052Y17937D01*
G01X4103Y17990D01*
G01X4207Y18041D01*
G01X4365Y18041D01*
G01X4469Y17937D01*
G01X4519Y17782D01*
G01X4519Y17574D01*
G01X4469Y17419D01*
G01X4365Y17315D01*
G01X3430Y18384D02*
G01X4519Y18646D01*
G01X3430Y18905D02*
G01X4519Y18646D01*
G01X3430Y18905D02*
G01X4519Y19164D01*
G01X3430Y19423D02*
G01X4519Y19164D01*
G01X3430Y19766D02*
G01X4519Y19766D01*
G01X3430Y20475D02*
G01X4519Y20475D01*
G01X3430Y20109D02*
G01X3430Y20838D01*
G01X3689Y21960D02*
G01X3585Y21907D01*
G01X3481Y21803D01*
G01X3430Y21699D01*
G01X3430Y21493D01*
G01X3481Y21389D01*
G01X3585Y21285D01*
G01X3689Y21231D01*
G01X3844Y21181D01*
G01X4103Y21181D01*
G01X4260Y21231D01*
G01X4365Y21285D01*
G01X4469Y21389D01*
G01X4519Y21493D01*
G01X4519Y21699D01*
G01X4469Y21803D01*
G01X4365Y21907D01*
G01X4260Y21960D01*
G01X3430Y22303D02*
G01X4519Y22303D01*
G01X3430Y23030D02*
G01X4519Y23030D01*
G01X3948Y22303D02*
G01X3948Y23030D01*
G01X32894Y5948D02*
G01X33984Y5948D01*
G01X32894Y5948D02*
G01X32894Y6624D01*
G01X33412Y5948D02*
G01X33412Y6365D01*
G01X32894Y7384D02*
G01X33984Y6967D01*
G01X32894Y7384D02*
G01X33984Y7800D01*
G01X33620Y7124D02*
G01X33620Y7643D01*
G01X32894Y8143D02*
G01X33984Y8143D01*
G01X32894Y8143D02*
G01X33984Y8869D01*
G01X32894Y8869D02*
G01X33984Y8869D01*
G01X33153Y9263D02*
G01X33100Y9263D01*
G01X32995Y9316D01*
G01X32945Y9367D01*
G01X32894Y9471D01*
G01X32894Y9680D01*
G01X32945Y9784D01*
G01X32995Y9835D01*
G01X33100Y9888D01*
G01X33204Y9888D01*
G01X33308Y9835D01*
G01X33465Y9733D01*
G01X33984Y9212D01*
G01X33984Y9939D01*
G01X32637Y15575D02*
G01X33730Y15575D01*
G01X32637Y15209D02*
G01X32637Y15938D01*
G01X32899Y17061D02*
G01X32795Y17008D01*
G01X32691Y16903D01*
G01X32637Y16799D01*
G01X32637Y16594D01*
G01X32691Y16489D01*
G01X32795Y16385D01*
G01X32899Y16332D01*
G01X33054Y16281D01*
G01X33313Y16281D01*
G01X33470Y16332D01*
G01X33575Y16385D01*
G01X33679Y16489D01*
G01X33730Y16594D01*
G01X33730Y16799D01*
G01X33679Y16903D01*
G01X33575Y17008D01*
G01X33470Y17061D01*
G01X3430Y6797D02*
G01X4519Y6797D01*
G01X3430Y6797D02*
G01X3430Y7472D01*
G01X3948Y6797D02*
G01X3948Y7213D01*
G01X3430Y8232D02*
G01X4519Y7815D01*
G01X3430Y8232D02*
G01X4519Y8648D01*
G01X4156Y7973D02*
G01X4156Y8491D01*
G01X3430Y8991D02*
G01X4519Y8991D01*
G01X3430Y8991D02*
G01X4519Y9718D01*
G01X3430Y9718D02*
G01X4519Y9718D01*
G01X4883Y10061D02*
G01X4883Y10995D01*
G01X3635Y11338D02*
G01X3585Y11442D01*
G01X3430Y11597D01*
G01X4519Y11597D01*
G01X3557Y28844D02*
G01X4646Y28844D01*
G01X3557Y28844D02*
G01X3557Y29520D01*
G01X4075Y28844D02*
G01X4075Y29260D01*
G01X4646Y28844D02*
G01X4646Y29520D01*
G01X5010Y29862D02*
G01X5010Y30800D01*
G01X3712Y31869D02*
G01X3608Y31765D01*
G01X3557Y31610D01*
G01X3557Y31402D01*
G01X3608Y31244D01*
G01X3712Y31143D01*
G01X3816Y31143D01*
G01X3920Y31193D01*
G01X3971Y31244D01*
G01X4024Y31348D01*
G01X4128Y31661D01*
G01X4179Y31765D01*
G01X4230Y31816D01*
G01X4334Y31869D01*
G01X4491Y31869D01*
G01X4596Y31765D01*
G01X4646Y31610D01*
G01X4646Y31402D01*
G01X4596Y31244D01*
G01X4491Y31143D01*
G01X3557Y32575D02*
G01X4646Y32575D01*
G01X3557Y32212D02*
G01X3557Y32938D01*
G01X3557Y33281D02*
G01X4646Y33281D01*
G01X3557Y33281D02*
G01X3557Y33749D01*
G01X3608Y33906D01*
G01X3658Y33957D01*
G01X3762Y34010D01*
G01X3920Y34010D01*
G01X4024Y33957D01*
G01X4075Y33906D01*
G01X4128Y33749D01*
G01X4128Y33281D01*
G54D10*
G75*
G01X29655Y34973D02*
G02X30732Y36050I541J536D01*
G01*
G54D21*
G75*
G01X31022Y37373D02*
G03X31022Y37373I-180J0D01*
G01*
M00*
M02*
